<svg xmlns="http://www.w3.org/2000/svg" width="24" height="24" fill="none" viewBox="0 0 24 24" id="gps"><path fill="#AAA" fill-rule="evenodd" d="M12 9.75C10.7574 9.75 9.75 10.7574 9.75 12 9.75 13.2426 10.7574 14.25 12 14.25 13.2426 14.25 14.25 13.2426 14.25 12 14.25 10.7574 13.2426 9.75 12 9.75zM8.25 12C8.25 9.92893 9.92893 8.25 12 8.25 14.0711 8.25 15.75 9.92893 15.75 12 15.75 14.0711 14.0711 15.75 12 15.75 9.92893 15.75 8.25 14.0711 8.25 12zM4.75 12C4.75 12.4142 4.41421 12.75 4 12.75L2 12.75C1.58579 12.75 1.25 12.4142 1.25 12 1.25 11.5858 1.58579 11.25 2 11.25L4 11.25C4.41421 11.25 4.75 11.5858 4.75 12zM22.75 12C22.75 12.4142 22.4142 12.75 22 12.75L20 12.75C19.5858 12.75 19.25 12.4142 19.25 12 19.25 11.5858 19.5858 11.25 20 11.25L22 11.25C22.4142 11.25 22.75 11.5858 22.75 12zM12 1.25C12.4142 1.25 12.75 1.58579 12.75 2V4C12.75 4.41421 12.4142 4.75 12 4.75 11.5858 4.75 11.25 4.41421 11.25 4V2C11.25 1.58579 11.5858 1.25 12 1.25zM12 19.25C12.4142 19.25 12.75 19.5858 12.75 20V22C12.75 22.4142 12.4142 22.75 12 22.75 11.5858 22.75 11.25 22.4142 11.25 22V20C11.25 19.5858 11.5858 19.25 12 19.25z" clip-rule="evenodd"></path><path fill="#111" fill-rule="evenodd" d="M12 4.75C7.99594 4.75 4.75 7.99594 4.75 12C4.75 16.0041 7.99594 19.25 12 19.25C16.0041 19.25 19.25 16.0041 19.25 12C19.25 7.99594 16.0041 4.75 12 4.75ZM3.25 12C3.25 7.16751 7.16751 3.25 12 3.25C16.8325 3.25 20.75 7.16751 20.75 12C20.75 16.8325 16.8325 20.75 12 20.75C7.16751 20.75 3.25 16.8325 3.25 12Z" clip-rule="evenodd"></path></svg>